<svg width="24" height="24" viewBox="0 0 24 24" fill="none" xmlns="http://www.w3.org/2000/svg">
  <path d="M8.4 17.4C9.4 15.6 10.8 14.7 12.2 14.7C13.6 14.7 15 15.6 16 17.4" stroke="#23263A" stroke-width="1.9" stroke-linecap="round"/>
  <path d="M9.1 11.6C9.9 11.6 10.6 10.9 10.6 10.1C10.6 9.3 9.9 8.6 9.1 8.6C8.3 8.6 7.6 9.3 7.6 10.1C7.6 10.9 8.3 11.6 9.1 11.6Z" fill="#23263A"/>
  <path d="M15.3 11.6C16.1 11.6 16.8 10.9 16.8 10.1C16.8 9.3 16.1 8.6 15.3 8.6C14.5 8.6 13.8 9.3 13.8 10.1C13.8 10.9 14.5 11.6 15.3 11.6Z" fill="#23263A"/>
  <path d="M6.9 18.9C7.4 16.5 8.6 15 10 15C11 15 11.8 15.8 12.2 17.4" stroke="#23263A" stroke-width="1.9" stroke-linecap="round"/>
  <path d="M17.5 18.9C17 16.5 15.8 15 14.4 15C13.4 15 12.6 15.8 12.2 17.4" stroke="#23263A" stroke-width="1.9" stroke-linecap="round"/>
</svg>
